<!DOCTYPE svg PUBLIC "-//W3C//DTD SVG 1.1//EN" "http://www.w3.org/Graphics/SVG/1.1/DTD/svg11.dtd">
<!-- Uploaded to: SVG Repo, www.svgrepo.com, Transformed by: SVG Repo Mixer Tools -->
<svg height="800px" width="800px" version="1.1" id="_x32_" xmlns="http://www.w3.org/2000/svg" xmlns:xlink="http://www.w3.org/1999/xlink" viewBox="-51.2 -51.2 614.40 614.40" xml:space="preserve" fill="#000000">
<g id="SVGRepo_bgCarrier" stroke-width="0" transform="translate(0,0), scale(1)">
<path transform="translate(-51.2, -51.2), scale(19.2)" d="M16,31.93876965912549C18.070380554114465,33.06652181382526,21.27372743570122,31.728932725994444,22.65432364311834,29.817845424652415C24.23935044606558,27.62377551548886,22.21729932710641,24.30429597064014,23.305594104519553,21.82601688833052C24.02740934478379,20.182289794931034,26.48501252130976,20.074609887614784,27.56322519401141,18.63923069343688C28.857263486625577,16.91653192656582,31.058126794159186,14.711382020202693,30.09922303981634,12.781944347190668C29.009470602723287,10.589222296764486,25.170146564030254,11.773824906024831,23.3417749304041,10.145129865838769C21.938446790509428,8.895059289832819,22.59562225472156,6.336380787937061,21.317103540621545,4.95892073010884C19.94518341792251,3.480831163872831,18.004383868045593,2.457362087621715,16,2.2351934615718694C13.953826187016508,2.008392781354373,11.474332423516138,2.1961288074197527,10.083251598821292,3.7137453468172463C8.57387436083403,5.360418796623489,10.247090570481262,8.565433838350899,8.711000088804774,10.1872165392556C6.952507409222016,12.043808349070288,3.227195273234436,10.761103513801539,1.5664719230022381,12.705641403998248C0.07269900543688146,14.454697342273214,0.4152677047124713,17.202865658867935,0.7797285869921708,19.47392762846598C1.1532945388091955,21.801725939773522,1.4883927094417593,24.94369041220528,3.6727755968784255,25.830633420271226C6.368573136568965,26.92523033949344,9.504241362256636,22.783182617938774,12.111295844573448,24.074977383682985C14.764790386088997,25.389783185752172,13.39940506183638,30.522205666005036,16,31.93876965912549" fill="#7ed0ec" strokewidth="0"/>
</g>
<g id="SVGRepo_tracerCarrier" stroke-linecap="round" stroke-linejoin="round" stroke="#CCCCCC" stroke-width="1.024"/>
<g id="SVGRepo_iconCarrier"> <style type="text/css"> .st0{fill:#ffffff;} </style> <g> <path class="st0" d="M378.413,0H208.297h-13.182L185.8,9.314L57.02,138.102l-9.314,9.314v13.176v265.514 c0,47.36,38.528,85.895,85.896,85.895h244.811c47.353,0,85.881-38.535,85.881-85.895V85.896C464.294,38.528,425.766,0,378.413,0z M432.497,426.105c0,29.877-24.214,54.091-54.084,54.091H133.602c-29.884,0-54.098-24.214-54.098-54.091V160.591h83.716 c24.885,0,45.077-20.178,45.077-45.07V31.804h170.116c29.87,0,54.084,24.214,54.084,54.092V426.105z"/> <path class="st0" d="M169.574,268.949c5.837,0,9.104,2.171,12.499,6.786c2.709,3.805,5.432,5.167,8.825,5.167 c5.028,0,9.105-3.673,9.105-8.965c0-2.171-0.684-4.078-1.774-5.977c-4.622-8.288-14.802-14.669-28.655-14.669 c-16.171,0-28.124,7.603-33.012,22.685c-1.899,6.11-2.57,10.865-2.57,24.989c0,14.125,0.67,18.881,2.57,24.99 c4.888,15.081,16.841,22.685,33.012,22.685c13.853,0,24.033-6.382,28.655-14.67c1.09-1.899,1.774-3.805,1.774-5.976 c0-5.3-4.078-8.965-9.105-8.965c-3.393,0-6.116,1.361-8.825,5.16c-3.394,4.622-6.662,6.794-12.499,6.794 c-7.471,0-11.814-3.938-13.853-10.187c-1.089-3.393-1.494-6.654-1.494-19.83c0-13.175,0.406-16.436,1.494-19.829 C157.76,272.887,162.103,268.949,169.574,268.949z"/> <path class="st0" d="M255.149,289.595l-4.888-0.684c-10.725-1.494-14.398-5.02-14.398-10.187c0-5.837,4.343-9.915,12.498-9.915 c5.698,0,11.409,1.634,15.892,3.805c1.899,0.95,3.938,1.494,5.837,1.494c4.888,0,8.7-3.666,8.7-8.693 c0-3.261-1.494-5.977-4.762-8.016c-5.432-3.394-15.612-6.11-25.806-6.11c-19.97,0-32.733,11.269-32.733,28.25 c0,16.304,10.32,25.13,29.2,27.713l4.901,0.677c10.99,1.494,14.258,4.888,14.258,10.32c0,6.389-5.306,10.872-15.082,10.872 c-6.787,0-12.219-1.767-19.83-5.977c-1.634-0.956-3.672-1.634-5.837-1.634c-5.166,0-8.965,3.938-8.965,8.832 c0,3.254,1.634,6.382,4.748,8.42c6.116,3.799,16.031,7.876,29.074,7.876c24.032,0,36.266-12.358,36.266-29.067 C284.223,300.865,274.307,292.311,255.149,289.595z"/> <path class="st0" d="M338.697,289.595l-4.888-0.684c-10.738-1.494-14.398-5.02-14.398-10.187c0-5.837,4.344-9.915,12.484-9.915 c5.712,0,11.423,1.634,15.892,3.805c1.913,0.95,3.952,1.494,5.851,1.494c4.887,0,8.686-3.666,8.686-8.693 c0-3.261-1.494-5.977-4.748-8.016c-5.432-3.394-15.626-6.11-25.806-6.11c-19.969,0-32.733,11.269-32.733,28.25 c0,16.304,10.32,25.13,29.2,27.713l4.888,0.677c11.004,1.494,14.258,4.888,14.258,10.32c0,6.389-5.292,10.872-15.068,10.872 c-6.8,0-12.232-1.767-19.829-5.977c-1.634-0.956-3.673-1.634-5.851-1.634c-5.153,0-8.965,3.938-8.965,8.832 c0,3.254,1.634,6.382,4.762,8.42c6.117,3.799,16.032,7.876,29.06,7.876c24.047,0,36.266-12.358,36.266-29.067 C367.758,300.865,357.843,292.311,338.697,289.595z"/> </g> </g>
</svg>